<!-- icon666.com - MILLIONS vector ICONS FREE -->
<svg id="icons" enable-background="new 0 0 64 64" viewBox="0 0 64 64" xmlns="http://www.w3.org/2000/svg">
    <path d="m60 2.5h-52c-1.66 0-3 1.34-3 3v4h2.5c.83 0 1.5.67 1.5 1.5s-.67 1.5-1.5 1.5h-2.5v6h2.5c.83 0 1.5.67 1.5 1.5s-.67 1.5-1.5 1.5h-2.5v6h2.5c.83 0 1.5.67 1.5 1.5s-.67 1.5-1.5 1.5h-2.5v6h2.5c.83 0 1.5.67 1.5 1.5s-.67 1.5-1.5 1.5h-2.5v6h2.5c.83 0 1.5.67 1.5 1.5s-.67 1.5-1.5 1.5h-2.5v10c0-1.66 1.34-3 3-3h50 2c1.66 0 3-1.34 3-3v-47c0-1.66-1.34-3-3-3z"
          fill="#ed5565"/>
    <path d="m14 7.5v43h4l10.5-18 4.971 8.51 9.529-16.51 15 26v-43z" fill="#5d9cec"/>
    <path d="m58 55.5v6h-50c-1.66 0-3-1.34-3-3s1.34-3 3-3z" fill="#e6e9ed"/>
    <path d="m43 24.5 15 26h-30l5.471-9.49z" fill="#f5f7fa"/>
    <path d="m33.471 41.01-5.471 9.49h-10l10.5-18z" fill="#e6e9ed"/>
    <path d="m25 16.5c1.109 0 2 .9 2 2 0 1.11-.891 2-2 2-1.1 0-2-.89-2-2 0-1.1.9-2 2-2z" fill="#ffce54"/>
    <path d="m7.5 9.5c.83 0 1.5.67 1.5 1.5s-.67 1.5-1.5 1.5h-2.5-2.5c-.83 0-1.5-.67-1.5-1.5s.67-1.5 1.5-1.5h2.5z"
          fill="#e6e9ed"/>
    <path d="m60 55.5c1.66 0 3-1.34 3-3v6c0 1.66-1.34 3-3 3h-2v-6z" fill="#da4453"/>
    <g fill="#e6e9ed">
        <path d="m5 18.5h2.5c.83 0 1.5.67 1.5 1.5s-.67 1.5-1.5 1.5h-2.5-2.5c-.83 0-1.5-.67-1.5-1.5s.67-1.5 1.5-1.5z"/>
        <path d="m5 45.5h2.5c.83 0 1.5.67 1.5 1.5s-.67 1.5-1.5 1.5h-2.5-2.5c-.83 0-1.5-.67-1.5-1.5s.67-1.5 1.5-1.5z"/>
        <path d="m5 36.5h2.5c.83 0 1.5.67 1.5 1.5s-.67 1.5-1.5 1.5h-2.5-2.5c-.83 0-1.5-.67-1.5-1.5s.67-1.5 1.5-1.5z"/>
        <path d="m5 27.5h2.5c.83 0 1.5.67 1.5 1.5s-.67 1.5-1.5 1.5h-2.5-2.5c-.83 0-1.5-.67-1.5-1.5s.67-1.5 1.5-1.5z"/>
    </g>
    <path d="m63 53.5c-.553 0-1-.447-1-1v-47c0-.552.447-1 1-1s1 .448 1 1v47c0 .553-.447 1-1 1z"/>
    <path d="m60 62.5h-52c-.553 0-1-.447-1-1s.447-1 1-1h52c.553 0 1 .447 1 1s-.447 1-1 1z"/>
    <path d="m5 10.5c-.553 0-1-.448-1-1v-4c0-.552.447-1 1-1s1 .448 1 1v4c0 .552-.447 1-1 1z"/>
    <path d="m5 19.5c-.553 0-1-.448-1-1v-6c0-.552.447-1 1-1s1 .448 1 1v6c0 .552-.447 1-1 1z"/>
    <path d="m5 28.5c-.553 0-1-.448-1-1v-6c0-.552.447-1 1-1s1 .448 1 1v6c0 .552-.447 1-1 1z"/>
    <path d="m5 37.5c-.553 0-1-.447-1-1v-6c0-.552.447-1 1-1s1 .448 1 1v6c0 .553-.447 1-1 1z"/>
    <path d="m5 46.5c-.553 0-1-.447-1-1v-6c0-.553.447-1 1-1s1 .447 1 1v6c0 .553-.447 1-1 1z"/>
    <path d="m5 59.5c-.553 0-1-.447-1-1v-10c0-.553.447-1 1-1s1 .447 1 1v10c0 .553-.447 1-1 1z"/>
    <path d="m8 62.5c-2.206 0-4-1.794-4-4s1.794-4 4-4c.553 0 1 .447 1 1s-.447 1-1 1c-1.103 0-2 .897-2 2s.897 2 2 2c.553 0 1 .447 1 1s-.447 1-1 1z"/>
    <path d="m7.5 13.5h-5c-1.379 0-2.5-1.122-2.5-2.5s1.121-2.5 2.5-2.5h5c1.379 0 2.5 1.122 2.5 2.5s-1.121 2.5-2.5 2.5zm-5-3c-.275 0-.5.224-.5.5s.225.5.5.5h5c.275 0 .5-.224.5-.5s-.225-.5-.5-.5z"/>
    <path d="m7.5 22.5h-5c-1.379 0-2.5-1.122-2.5-2.5s1.121-2.5 2.5-2.5h5c1.379 0 2.5 1.122 2.5 2.5s-1.121 2.5-2.5 2.5zm-5-3c-.275 0-.5.224-.5.5s.225.5.5.5h5c.275 0 .5-.224.5-.5s-.225-.5-.5-.5z"/>
    <path d="m7.5 31.5h-5c-1.379 0-2.5-1.122-2.5-2.5s1.121-2.5 2.5-2.5h5c1.379 0 2.5 1.122 2.5 2.5s-1.121 2.5-2.5 2.5zm-5-3c-.275 0-.5.224-.5.5s.225.5.5.5h5c.275 0 .5-.224.5-.5s-.225-.5-.5-.5z"/>
    <path d="m7.5 40.5h-5c-1.379 0-2.5-1.121-2.5-2.5s1.121-2.5 2.5-2.5h5c1.379 0 2.5 1.121 2.5 2.5s-1.121 2.5-2.5 2.5zm-5-3c-.275 0-.5.225-.5.5s.225.5.5.5h5c.275 0 .5-.225.5-.5s-.225-.5-.5-.5z"/>
    <path d="m7.5 49.5h-5c-1.379 0-2.5-1.121-2.5-2.5s1.121-2.5 2.5-2.5h5c1.379 0 2.5 1.121 2.5 2.5s-1.121 2.5-2.5 2.5zm-5-3c-.275 0-.5.225-.5.5s.225.5.5.5h5c.275 0 .5-.225.5-.5s-.225-.5-.5-.5z"/>
    <path d="m5 6.5c-.553 0-1-.448-1-1 0-2.206 1.794-4 4-4 .553 0 1 .448 1 1s-.447 1-1 1c-1.103 0-2 .897-2 2 0 .552-.447 1-1 1z"/>
    <path d="m60 56.5c-.553 0-1-.447-1-1s.447-1 1-1c1.103 0 2-.897 2-2 0-.553.447-1 1-1s1 .447 1 1c0 2.206-1.794 4-4 4z"/>
    <path d="m63 6.5c-.553 0-1-.448-1-1 0-1.103-.897-2-2-2-.553 0-1-.448-1-1s.447-1 1-1c2.206 0 4 1.794 4 4 0 .552-.447 1-1 1z"/>
    <path d="m60 62.5c-.553 0-1-.447-1-1s.447-1 1-1c1.103 0 2-.897 2-2 0-.553.447-1 1-1s1 .447 1 1c0 2.206-1.794 4-4 4z"/>
    <path d="m60 56.5h-52c-.553 0-1-.447-1-1s.447-1 1-1h52c.553 0 1 .447 1 1s-.447 1-1 1z"/>
    <path d="m63 59.5c-.553 0-1-.447-1-1v-6c0-.553.447-1 1-1s1 .447 1 1v6c0 .553-.447 1-1 1z"/>
    <path d="m60 3.5h-52c-.553 0-1-.448-1-1s.447-1 1-1h52c.553 0 1 .448 1 1s-.447 1-1 1z"/>
    <path d="m58 51.501h-44c-.553 0-1-.447-1-1v-43c0-.552.447-1 1-1h44c.553 0 1 .448 1 1v43c0 .553-.447 1-1 1zm-43-2h42v-41h-42z"/>
    <path d="m25.003 21.5c-1.654 0-3-1.346-3-3s1.346-3 3-3 3 1.346 3 3-1.346 3-3 3zm0-4c-.552 0-1 .449-1 1s.448 1 1 1 1-.449 1-1-.448-1-1-1z"/>
    <path d="m25.003 14.5c-.553 0-1-.448-1-1v-1c0-.552.447-1 1-1s1 .448 1 1v1c0 .553-.447 1-1 1z"/>
    <path d="m25.003 25.5c-.553 0-1-.448-1-1v-1c0-.552.447-1 1-1s1 .448 1 1v1c0 .553-.447 1-1 1z"/>
    <path d="m21.467 15.964c-.256 0-.512-.098-.707-.293l-.707-.707c-.391-.391-.391-1.023 0-1.414s1.023-.391 1.414 0l.707.707c.391.391.391 1.023 0 1.414-.195.196-.451.293-.707.293z"/>
    <path d="m29.245 23.743c-.256 0-.512-.098-.707-.293l-.707-.707c-.391-.391-.391-1.023 0-1.414s1.023-.391 1.414 0l.707.707c.391.391.391 1.023 0 1.414-.195.195-.451.293-.707.293z"/>
    <path d="m20.001 19.5h-1c-.553 0-1-.448-1-1s.447-1 1-1h1c.553 0 1 .448 1 1s-.447 1-1 1z"/>
    <path d="m31.001 19.5h-1c-.553 0-1-.448-1-1s.447-1 1-1h1c.553 0 1 .448 1 1s-.447 1-1 1z"/>
    <path d="m20.759 23.745c-.256 0-.512-.098-.707-.293-.391-.391-.391-1.023 0-1.414l.707-.707c.391-.391 1.023-.391 1.414 0s.391 1.023 0 1.414l-.707.707c-.195.195-.451.293-.707.293z"/>
    <path d="m28.536 15.965c-.256 0-.512-.098-.707-.293-.391-.391-.391-1.023 0-1.414l.707-.707c.391-.391 1.023-.391 1.414 0s.391 1.023 0 1.414l-.707.707c-.195.196-.451.293-.707.293z"/>
    <path d="m27.995 51.501c-.17 0-.342-.043-.499-.134-.479-.276-.643-.888-.366-1.366l15.002-26.002c.276-.479.888-.643 1.366-.367s.643.888.366 1.366l-15.002 26.003c-.185.32-.521.5-.867.5z"/>
    <path d="m58.001 51.501c-.346 0-.682-.18-.867-.5l-15.002-26.003c-.276-.478-.112-1.09.366-1.366.476-.276 1.089-.112 1.366.367l15.002 26.002c.276.479.112 1.09-.366 1.366-.157.091-.329.134-.499.134z"/>
    <path d="m17.997 51.501c-.171 0-.345-.044-.503-.137-.477-.278-.638-.891-.359-1.367l10.502-18.001c.278-.477.892-.636 1.367-.36.477.278.638.891.359 1.368l-10.502 18.001c-.185.318-.52.496-.864.496z"/>
    <path d="m33.468 42.014c-.344 0-.679-.178-.864-.496l-4.967-8.514c-.278-.477-.117-1.089.359-1.368.478-.276 1.09-.117 1.367.36l4.967 8.514c.278.477.117 1.09-.359 1.367-.158.093-.332.137-.503.137z"/>
    <path d="m58 62.5c-.553 0-1-.447-1-1v-6c0-.553.447-1 1-1s1 .447 1 1v6c0 .553-.447 1-1 1z"/>
</svg>