<!-- icon666.com - MILLIONS vector ICONS FREE -->
<svg fill="#fff" id="Capa_1" enable-background="new 0 0 512 512" viewBox="0 0 512 512"
     xmlns="http://www.w3.org/2000/svg">
    <g>
        <path d="m269.83 498.17h-269.83l86.384-84.084c-37.977-43.962-58.725-99.541-58.725-158.086 0-64.686 25.19-125.5 70.93-171.24s106.554-70.93 171.24-70.93 125.5 25.19 171.24 70.93c45.741 45.74 70.931 106.554 70.931 171.24s-25.19 125.5-70.93 171.24-106.554 70.93-171.24 70.93zm-195.511-30h195.511c116.991 0 212.17-95.179 212.17-212.17s-95.179-212.17-212.17-212.17-212.171 95.179-212.171 212.17c0 33.604 7.976 67.049 23.362 96.937 12.15 23.603 28.949 43.009 47.334 61.858z"/>
    </g>
</svg>